<svg width="512" height="512" viewBox="0 0 512 512" fill="none" xmlns="http://www.w3.org/2000/svg">
<path fill-rule="evenodd" clip-rule="evenodd" d="M113 32C90.9086 32 73 49.9086 73 72C73 83.685 78.0104 94.1997 86 101.513V415.487C78.0104 422.8 73 433.315 73 445C73 467.091 90.9086 485 113 485C126.612 485 138.637 478.2 145.861 467.812L399.049 407.251C403.377 410.841 408.937 413 415 413C428.807 413 440 401.807 440 388C440 380.516 436.711 373.8 431.5 369.218V146.782C436.711 142.2 440 135.484 440 128C440 114.193 428.807 103 415 103C408.641 103 402.837 105.374 398.425 109.284L145.594 48.808C138.342 38.6343 126.446 32 113 32ZM126 407.16C137.036 410.951 145.891 419.433 150.183 430.226L365.263 392.72L390.006 387.465C390.265 375.087 399.522 364.921 411.5 363.243V152.757C399.669 151.1 390.494 141.162 390.019 128.991L381.104 127.084L150.168 86.8124C145.87 97.5869 137.023 106.054 126 109.84V407.16ZM316 255.5C316 273.449 303.688 288 288.5 288C273.312 288 261 273.449 261 255.5C261 237.551 273.312 223 288.5 223C303.688 223 316 237.551 316 255.5ZM112.999 91.0031C102.505 91.0031 93.9986 82.4965 93.9986 72.0031C93.9986 61.5097 102.505 53.0031 112.999 53.0031C123.492 53.0031 131.999 61.5097 131.999 72.0031C131.999 82.4965 123.492 91.0031 112.999 91.0031ZM415 137C410.029 137 406 132.971 406 128C406 123.029 410.029 119 415 119C419.971 119 424 123.029 424 128C424 132.971 419.971 137 415 137ZM93.9992 445.001C93.9992 455.494 102.506 464.001 112.999 464.001C123.493 464.001 131.999 455.494 131.999 445.001C131.999 434.507 123.493 426.001 112.999 426.001C102.506 426.001 93.9992 434.507 93.9992 445.001ZM415 397C410.029 397 406 392.971 406 388C406 383.029 410.029 379 415 379C419.971 379 424 383.029 424 388C424 392.971 419.971 397 415 397Z"/>
</svg>
